<svg xmlns="http://www.w3.org/2000/svg" width="100" height="90" viewBox="0 0 100 90"><g fill="none" fill-rule="evenodd"><ellipse cx="43.089" cy="47.027" fill="#C66969" fill-opacity=".4" rx="43.089" ry="42.973"/><ellipse cx="54.878" cy="45" fill="#AF9B78" fill-opacity=".4" rx="45.122" ry="45"/><g transform="translate(9.756 8.108)"><ellipse cx="39.024" cy="38.919" fill="#8E2B2B" rx="39.024" ry="38.919"/><path fill="#FFF" fill-rule="nonzero" d="M25.4257812,4.04296875 L16.0820312,13.3867188 L16.0820312,13.3867188 L25.4257812,22.7304688 C26.1700712,23.4747587 26.1700712,24.6814913 25.4257812,25.4257812 C24.6814913,26.1700712 23.4747587,26.1700712 22.7304688,25.4257812 L13.3867188,16.0820312 L13.3867188,16.0820312 L4.04296875,25.4257812 C3.29867876,26.1700712 2.09194624,26.1700712 1.34765625,25.4257812 C0.603366255,24.6814913 0.603366255,23.4747587 1.34765625,22.7304688 L10.6914062,13.3867188 L10.6914062,13.3867188 L1.34765625,4.04296875 C0.603366255,3.29867876 0.603366255,2.09194624 1.34765625,1.34765625 C2.09194624,0.603366255 3.29867876,0.603366255 4.04296875,1.34765625 L13.3867188,10.6914062 L13.3867188,10.6914062 L22.7304688,1.34765625 C23.4747587,0.603366255 24.6814913,0.603366255 25.4257812,1.34765625 C26.1700712,2.09194624 26.1700712,3.29867876 25.4257812,4.04296875 Z" transform="translate(26.357 25.255)"/></g></g></svg>