<svg xmlns="http://www.w3.org/2000/svg" width="100" height="90" viewBox="0 0 100 90"><g fill="none" fill-rule="evenodd"><ellipse cx="43.089" cy="47.027" fill="#64A6ED" fill-opacity=".4" rx="43.089" ry="42.973"/><ellipse cx="54.878" cy="45" fill="#89CAB3" fill-opacity=".4" rx="45.122" ry="45"/><ellipse cx="48.78" cy="47.027" fill="#004EA2" rx="39.024" ry="38.919"/><path fill="#FFF" fill-rule="nonzero" d="M11.4438244,21.743533 L31.7434591,1.45285567 C32.5465731,0.650096025 33.8480749,0.649359049 34.6520976,1.45120865 C35.453578,2.25052289 35.455334,3.54822335 34.6560197,4.34970376 C34.6547141,4.35101292 34.6534067,4.35232032 34.6520976,4.35362595 L11.4438244,27.4991741 L11.4438244,27.4991741 L1.44282908,17.5252085 C0.644617062,16.7291538 0.639098954,15.4379181 1.43047805,14.6350703 C2.21590842,13.8382574 3.49857001,13.82903 4.2953829,14.6144604 C4.29819176,14.6172291 4.30099254,14.6200061 4.30378518,14.6227912 L11.4438244,21.743533 L11.4438244,21.743533 Z" transform="translate(33.865 33.734)"/></g></svg>