<svg width="20" height="20" viewBox="0 0 36 36" fill="none" xmlns="http://www.w3.org/2000/svg">
<path fill-rule="evenodd" clip-rule="evenodd" d="M35.1151 16.2279L28.7876 14.8082L28.1172 8.87764C28.0596 8.35374 27.651 7.9451 27.1272 7.88747L21.2922 7.22736L20.6008 1.00347C20.5641 0.694369 20.407 0.411465 20.1555 0.228101C19.9094 0.0394977 19.5951 -0.0390868 19.286 0.0185419L12.9272 1.14492C12.5186 1.21827 12.1887 1.50117 12.0525 1.89409L5.76696 20.6863L2.77086 23.6777L1.9747 24.4741C0.701882 25.7471 0 27.4445 0 29.2468C0 31.049 0.701882 32.7464 1.9747 34.0195C3.24751 35.2978 4.9446 35.9998 6.74645 35.9998C8.5483 35.9998 10.2454 35.2978 11.5182 34.0247L12.3144 33.2284L15.3105 30.2369L20.571 28.4801C20.6738 32.6507 24.0867 36 28.2818 36C32.5417 36 35.995 32.5465 35.995 28.2864C35.995 26.5806 35.4414 25.0042 34.504 23.727C34.6787 23.5681 34.8024 23.3551 34.8532 23.1172L35.9793 17.5534C36.0946 16.9509 35.7174 16.3641 35.1151 16.2279ZM28.2818 20.5727C29.957 20.5727 31.5075 21.1068 32.7723 22.014L33.5489 18.1821L28.0072 16.9404L14.0481 27.0045L15.0067 27.9632L20.9161 25.9901C21.8935 22.8514 24.8216 20.5727 28.2818 20.5727ZM20.7998 9.43297L25.9801 10.0197L26.5668 15.2063L12.4348 25.3909L10.6068 23.5625L20.7998 9.43297ZM13.9748 3.24051L18.5004 2.44418L19.108 7.93463L8.99876 21.9489L8.04022 20.9901L13.9748 3.24051ZM3.56703 32.432C2.71848 31.5833 2.24707 30.4517 2.25231 29.252C2.25231 28.0523 2.71848 26.9207 3.57227 26.0719L9.92587 32.432C8.22878 34.1347 5.26935 34.1295 3.56703 32.432ZM11.5182 30.8394L5.15936 24.4741L6.75169 22.8814L13.1158 29.2468L11.5182 30.8394ZM27.1475 24.5777C27.1475 23.8677 27.7231 23.2922 28.4331 23.2922C29.143 23.2922 29.7186 23.8677 29.7186 24.5777V27.149H32.2896C32.9996 27.149 33.5752 27.7246 33.5752 28.4346C33.5752 29.1446 32.9996 29.7202 32.2896 29.7202H29.7186V32.2915C29.7186 33.0014 29.143 33.577 28.4331 33.577C27.7231 33.577 27.1475 33.0014 27.1475 32.2915V29.7202H24.5765C23.8665 29.7202 23.2909 29.1446 23.2909 28.4346C23.2909 27.7246 23.8665 27.149 24.5765 27.149L27.1475 27.149V24.5777Z" fill="black"/>
</svg>
