<svg width="56" height="62" viewBox="0 0 56 62" fill="none" xmlns="http://www.w3.org/2000/svg">
<g clip-path="url(#clip0_1755_7171)">
<g filter="url(#filter0_d_1755_7171)">
<path d="M56 28C56 43.464 43.464 56 28 56C12.536 56 0 43.464 0 28C0 12.536 12.536 0 28 0C43.464 0 56 12.536 56 28Z" fill="url(#paint0_linear_1755_7171)"/>
<path fill-rule="evenodd" clip-rule="evenodd" d="M45.1151 26.2279L38.7876 24.8082L38.1172 18.8776C38.0596 18.3537 37.651 17.9451 37.1272 17.8875L31.2922 17.2274L30.6008 11.0035C30.5641 10.6944 30.407 10.4115 30.1555 10.2281C29.9094 10.0395 29.5951 9.96091 29.286 10.0185L22.9272 11.1449C22.5186 11.2183 22.1887 11.5012 22.0525 11.8941L15.767 30.6863L12.7709 33.6777L11.9747 34.4741C10.7019 35.7471 10 37.4445 10 39.2468C10 41.049 10.7019 42.7464 11.9747 44.0195C13.2475 45.2978 14.9446 45.9998 16.7464 45.9998C18.5483 45.9998 20.2454 45.2978 21.5182 44.0247L22.3144 43.2284L25.3105 40.2369L30.571 38.4801C30.6738 42.6507 34.0867 46 38.2818 46C42.5417 46 45.995 42.5465 45.995 38.2864C45.995 36.5806 45.4414 35.0042 44.504 33.727C44.6787 33.5681 44.8024 33.3551 44.8532 33.1172L45.9793 27.5534C46.0946 26.9509 45.7174 26.3641 45.1151 26.2279ZM38.2818 30.5727C39.957 30.5727 41.5075 31.1068 42.7723 32.014L43.5489 28.1821L38.0072 26.9404L24.0481 37.0045L25.0067 37.9632L30.9161 35.9901C31.8935 32.8514 34.8216 30.5727 38.2818 30.5727ZM30.7998 19.433L35.9801 20.0197L36.5668 25.2063L22.4348 35.3909L20.6068 33.5625L30.7998 19.433ZM23.9748 13.2405L28.5004 12.4442L29.108 17.9346L18.9988 31.9489L18.0402 30.9901L23.9748 13.2405ZM13.567 42.432C12.7185 41.5833 12.2471 40.4517 12.2523 39.252C12.2523 38.0523 12.7185 36.9207 13.5723 36.0719L19.9259 42.432C18.2288 44.1347 15.2694 44.1295 13.567 42.432ZM21.5182 40.8394L15.1594 34.4741L16.7517 32.8814L23.1158 39.2468L21.5182 40.8394ZM37.1475 34.5777C37.1475 33.8677 37.7231 33.2922 38.4331 33.2922C39.143 33.2922 39.7186 33.8677 39.7186 34.5777V37.149H42.2896C42.9996 37.149 43.5752 37.7246 43.5752 38.4346C43.5752 39.1446 42.9996 39.7202 42.2896 39.7202H39.7186V42.2915C39.7186 43.0014 39.143 43.577 38.4331 43.577C37.7231 43.577 37.1475 43.0014 37.1475 42.2915V39.7202H34.5765C33.8665 39.7202 33.2909 39.1446 33.2909 38.4346C33.2909 37.7246 33.8665 37.149 34.5765 37.149L37.1475 37.149V34.5777Z" fill="white"/>
</g>
</g>
<defs>
<filter id="filter0_d_1755_7171" x="-4" y="0" width="64" height="64" filterUnits="userSpaceOnUse" color-interpolation-filters="sRGB">
<feFlood flood-opacity="0" result="BackgroundImageFix"/>
<feColorMatrix in="SourceAlpha" type="matrix" values="0 0 0 0 0 0 0 0 0 0 0 0 0 0 0 0 0 0 127 0" result="hardAlpha"/>
<feOffset dy="4"/>
<feGaussianBlur stdDeviation="2"/>
<feComposite in2="hardAlpha" operator="out"/>
<feColorMatrix type="matrix" values="0 0 0 0 0 0 0 0 0 0 0 0 0 0 0 0 0 0 0.25 0"/>
<feBlend mode="normal" in2="BackgroundImageFix" result="effect1_dropShadow_1755_7171"/>
<feBlend mode="normal" in="SourceGraphic" in2="effect1_dropShadow_1755_7171" result="shape"/>
</filter>
<linearGradient id="paint0_linear_1755_7171" x1="28" y1="0" x2="28" y2="56" gradientUnits="userSpaceOnUse">
<stop stop-color="#65C1A3"/>
<stop offset="1" stop-color="#12543E"/>
</linearGradient>
<clipPath id="clip0_1755_7171">
<rect width="56" height="62" fill="white"/>
</clipPath>
</defs>
</svg>
